<?xml version="1.0" encoding="UTF-8"?>
<svg id="_레이어_1" data-name="레이어_1" xmlns="http://www.w3.org/2000/svg" version="1.1" viewBox="0 0 358.04 47.24">
  <!-- Generator: Adobe Illustrator 30.7.0, SVG Export Plug-In . SVG Version: 2.1.4 Build 63)  -->
  <defs>
    <style>
      .st0 {
        fill: none;
      }

      .st1 {
        fill: #fff;
      }
    </style>
  </defs>
  <g>
    <g>
      <path class="st1" d="M190.23,20.89c0,.7.05,1.32.16,1.86.1.54.26,1.03.48,1.47.21.45.48.86.82,1.23.34.37.74.74,1.21,1.1l-.98,1.08c-.5-.35-.97-.81-1.4-1.37-.43-.56-.78-1.18-1.05-1.84-.11.33-.26.66-.45.99-.19.33-.39.65-.61.94-.22.3-.45.58-.69.82-.23.24-.45.44-.65.59l-1.09-1.01c.95-.66,1.65-1.46,2.1-2.41.45-.95.68-2.1.68-3.45v-1.52c0-.11-.01-.24-.03-.37h1.54c0,.13-.01.25-.02.35,0,.1-.01.19-.01.27,0,.09-.01.19-.01.29v.98ZM193.42,19.4c0-.19-.01-.37-.02-.54s0-.29-.02-.37h.8c.24,0,.4.07.5.21.1.14.15.31.15.51v9.87c0,.17,0,.34.02.5h-1.45c.01-.17.02-.34.02-.5v-9.68Z"/>
      <path class="st1" d="M197.2,21.26h-.25c-.09,0-.17,0-.26.03v-1.24c.1.02.2.03.3.03h4.14c.1,0,.2,0,.3-.03v1.24c-.09-.02-.18-.03-.27-.03h-3.96ZM196.96,23.35c0-.24.05-.46.14-.67.09-.21.23-.41.41-.57.18-.17.4-.3.67-.4.26-.1.57-.15.9-.15s.63.05.9.14c.26.1.49.23.69.4.18.17.32.36.41.58.09.22.14.45.14.68s-.05.47-.15.69c-.1.21-.24.4-.42.56-.19.16-.41.29-.68.38s-.56.14-.89.14-.63-.05-.89-.14-.49-.23-.67-.4c-.19-.16-.33-.35-.42-.56-.09-.21-.14-.44-.14-.67ZM198.28,19.66h-.25c-.09,0-.17,0-.26.03v-1.21c.1.02.2.03.29.03h1.97c.1,0,.2,0,.3-.03v1.21c-.09-.02-.18-.03-.27-.03h-1.78ZM197.94,27.64c0-.29.08-.58.24-.85.16-.27.4-.51.72-.72.31-.2.7-.36,1.16-.49.46-.12,1-.18,1.6-.18s1.15.06,1.61.18c.46.12.85.28,1.16.49.32.2.55.44.72.71.16.27.24.55.24.86,0,.68-.31,1.22-.94,1.62-.63.4-1.56.6-2.79.6s-2.12-.2-2.76-.59c-.64-.4-.96-.93-.96-1.61ZM198.38,23.32c0,.19.06.35.19.48.13.13.3.19.51.19s.4-.06.52-.19c.13-.13.19-.29.19-.48s-.06-.35-.19-.47c-.13-.12-.3-.18-.52-.18s-.39.06-.51.18c-.13.12-.19.27-.19.47ZM199.47,27.64c0,.13.05.24.16.35s.26.2.45.27c.19.08.43.15.7.2s.58.07.91.07.63-.02.9-.07.51-.11.71-.18c.19-.08.35-.17.46-.28.11-.11.17-.23.17-.35,0-.13-.06-.26-.18-.37s-.28-.2-.48-.28c-.2-.08-.44-.13-.71-.18-.27-.04-.57-.06-.88-.06s-.62.02-.9.06-.52.1-.71.18c-.2.08-.35.18-.45.29s-.16.23-.16.35ZM203.89,21.07v-1.66c0-.19-.01-.37-.02-.54,0-.17,0-.29-.02-.37h.82c.24,0,.4.07.5.21.1.14.15.31.15.51v5.77c0,.17,0,.34.02.5h-1.47c.01-.17.02-.34.02-.5v-2.51h-.72v2c0,.17,0,.34.02.5h-1.41c.01-.17.02-.34.02-.5v-4.98c0-.18-.01-.34-.02-.49,0-.15,0-.26-.02-.33h.76c.24,0,.4.07.5.21.1.14.15.31.15.51v1.66h.72Z"/>
      <path class="st1" d="M210.61,20.89c0,.7.05,1.32.14,1.85s.25,1.03.46,1.46c.2.45.47.86.8,1.23.33.37.73.75,1.21,1.12l-.98,1.08c-.5-.35-.95-.81-1.37-1.37s-.75-1.18-1.02-1.84c-.11.34-.26.67-.44,1-.18.33-.38.65-.58.94-.21.29-.44.56-.67.81s-.45.44-.66.59l-1.09-1.01c.95-.66,1.64-1.46,2.07-2.41.43-.95.65-2.1.65-3.45v-1.52c0-.11,0-.24-.02-.37h1.53c0,.13-.01.25-.02.35s0,.19,0,.27c0,.09-.01.19-.01.29v.98ZM213.63,19.4c0-.19-.01-.37-.02-.54s0-.29-.02-.37h.81c.23,0,.4.07.5.21.1.14.15.31.15.51v3.34h.44c.15,0,.3,0,.46,0,.16,0,.32-.01.46-.03v1.49c-.15-.02-.3-.03-.46-.03-.16,0-.32,0-.46,0h-.44v5.12c0,.17,0,.34.02.5h-1.46c.01-.17.02-.34.02-.5v-9.68Z"/>
    </g>
    <g>
      <path class="st1" d="M254.39,17.85v-1.67h2.47v1.67h3.3v1.59h-1.73c.78.93,1.27,2.26,1.29,3.79-.02,2.98-1.69,5.2-4.09,5.2-2.47.02-4.11-2.22-4.11-5.2,0-1.53.49-2.86,1.27-3.79h-1.62v-1.59h3.23ZM255.62,19.47c-.97,0-1.74,1.48-1.73,3.75-.02,2.17.74,3.61,1.71,3.61s1.73-1.41,1.73-3.61c0-2.38-.71-3.75-1.71-3.75M264.12,22.61v9.52h-2.38v-15.95h2.38v4.85h2.29v1.59h-2.29Z"/>
      <path class="st1" d="M270.84,25.96h4c1.08,0,1.89.05,2.89-.48v-9.31h2.38v4.85h2.29v1.59h-2.29v9.52h-2.38v-5.06c-.83.37-1.94.48-2.94.48h-5.27c-1.04,0-1.83-1.01-1.83-2.19v-8.48h2.38v8.43c0,.4.26.65.78.65"/>
      <path class="st1" d="M291.26,18.65h-2.73v1.62c-.02,2.86,1.16,5.11,3.08,5.85v1.67c-2.13-.3-4.07-2.15-4.39-3.12-.32.99-2.19,2.78-4.25,3.12v-1.67c1.9-.76,3.07-2.96,3.08-5.89v-1.59h-2.82v-1.59h8.02v1.59ZM295.67,22.61v9.52h-2.38v-15.95h2.38v4.85h2.29v1.59h-2.29Z"/>
      <path class="st1" d="M303.95,16.8v1.43c0,2.98,1.13,5.09,3.08,5.66v1.59c-2.38-.21-4.14-1.99-4.39-2.87-.26.92-2.13,2.68-4.25,2.87v-1.59c1.92-.56,3.08-2.68,3.08-5.69v-1.39h2.47ZM303.77,30.55h7.32v1.59h-8.71c-.97,0-1.69-.99-1.69-2.12v-3.53h2.38v3.35c0,.42.28.7.71.7M311.09,21.56v6.17h-2.38v-11.55h2.38v3.79h2.29v1.59h-2.29Z"/>
      <path class="st1" d="M319.37,16.8v1.43c0,2.98,1.13,5.09,3.08,5.66v1.59c-2.38-.21-4.14-1.99-4.39-2.87-.26.92-2.13,2.68-4.25,2.87v-1.59c1.92-.56,3.08-2.68,3.08-5.69v-1.39h2.47ZM319.37,30.55h7.32v1.59h-8.71c-.97,0-1.69-.99-1.69-2.12v-3.7h2.38v3.53c0,.42.28.7.71.7M326.69,27.73h-2.38v-11.55h2.38v11.55Z"/>
      <path class="st1" d="M328.74,16.71h7.49v1.59h-5.11v1.6h4.94v1.59h-4.94v1.01c0,.4.26.65.78.65h4.18c1.06,0,1.78.05,2.71-.46v-6.5h2.38v3.26h2.29v1.59h-2.29v4.23h-2.38v-1.02c-.78.35-1.76.49-2.77.49h-5.45c-1.04,0-1.83-1.01-1.83-2.19v-5.83ZM341.17,32.31h-2.38v-4.58h-8.02v-1.59h10.4v6.17Z"/>
      <path class="st1" d="M235.11,14.94c0,1.18.95,2.13,2.13,2.13s2.13-.96,2.13-2.13c0-.18-.04-.35-.11-.51-.18-.39-.39-.57-.37-1.04.03-.63-.77-.63-1.21-.63-.47,0-.97.06-1.4.28-.34.17-.63.43-.84.75-.21.33-.33.71-.34,1.1v.05Z"/>
      <path class="st1" d="M248.06,17.6c-.15-.23-.46-.24-1.03-.13-.84.16-3.35.67-7.33.8-1.83.06-3.83.07-5.84-.11-1.65-.15-4.76-.65-5.46-.72-.37-.04-1.22-.1-1.66.27-.58.48-.41,1.19-.07,1.76,0,0,.76,1.21,2.5,1.57,2.54.42,6.46.31,7.76.17,2.88-.27,5.09-.68,6.85-1.16,0,0,2.35-.67,3.49-1.32.43-.24,1.05-.71.79-1.13"/>
      <path class="st1" d="M239.47,22.79c-1.43-.78-3.14-.78-4.55.03-2.27,1.3-3.07,4.16-1.71,6.5,1.11,1.73,2.59,1.32,3.01.88.53-.58.33-1.19.05-1.56-.57-.71-.63-1.19-.63-1.49,0-.92.75-1.66,1.66-1.66.48,0,.95.22,1.27.58.44.52.49,1.26.46,1.85-.19,3.56-1.64,6.63-1.72,6.86-.06.16-.18.57.13.74.23.12.51,0,.78-.23.67-.57,1.96-2.19,2.65-3.77.37-.85,1.29-3.12.99-5.38-.31-1.74-1.42-2.8-2.39-3.32"/>
    </g>
  </g>
  <g>
    <g>
      <path class="st1" d="M15.56,24.18c-.23,0-.41-.01-.54-.04-.13-.03-.23-.09-.3-.2-.07-.09-.12-.23-.14-.42-.02-.18-.03-.44-.03-.76.15,0,.28.02.4.02.12,0,.24,0,.37,0h5.75l.2-1.21c.03-.23.06-.46.09-.69.03-.23.05-.45.06-.66h-5.45c-.13,0-.28,0-.42.03v-1.44c.07.02.13.03.19.03h7.23c0,.24-.02.54-.05.88-.03.34-.06.69-.1,1.05-.05.37-.09.73-.14,1.08-.05.35-.1.66-.15.93h.36c.24,0,.43.02.57.06.14.04.24.11.32.21.06.11.1.26.12.44s.03.42.03.71c-.15,0-.28-.01-.4-.02-.12,0-.24,0-.36,0h-7.6ZM15.7,29.61v-3.19c0-.41-.01-.83-.03-1.26h7.13c-.01.14-.02.28-.02.4v4.05h-7.08ZM21.33,26.55h-4.19v1.68h4.19v-1.68Z"/>
      <path class="st1" d="M33.41,23.37c.24,0,.43.02.57.06.14.04.24.11.32.21.06.11.1.26.12.44.02.19.03.42.03.71-.15,0-.28-.02-.4-.02-.12,0-.24,0-.36,0h-1.41v.62c0,.07,0,.13,0,.19,0,.06,0,.11,0,.16,0,.03,0,.06,0,.09,0,.03,0,.05,0,.08.4.21.7.47.91.77.21.3.32.63.32,1,0,.32-.08.62-.25.9-.16.28-.4.52-.71.73-.32.2-.72.36-1.18.48-.46.12-1,.18-1.6.18s-1.15-.06-1.62-.18c-.47-.12-.86-.28-1.16-.49-.32-.21-.55-.45-.71-.72s-.24-.57-.24-.89c0-.36.1-.69.3-1s.51-.56.93-.77v-1.13h-1.18c-.23,0-.41-.01-.54-.04-.13-.03-.23-.09-.3-.2-.07-.09-.12-.23-.14-.42-.02-.18-.03-.44-.03-.76.15,0,.28.01.4.02.12,0,.24,0,.37,0h7.56ZM26.1,20.71c0-.33.08-.63.25-.92.17-.29.41-.53.73-.74.31-.21.69-.37,1.14-.49.45-.12.97-.18,1.54-.18s1.09.06,1.55.18c.45.12.83.28,1.14.49.32.21.56.46.72.74.16.29.25.59.25.92s-.08.63-.25.91c-.16.28-.41.52-.72.72-.31.2-.69.36-1.14.47-.45.11-.97.17-1.55.17s-1.08-.06-1.54-.17c-.45-.11-.83-.27-1.14-.47-.32-.2-.56-.44-.73-.72s-.25-.58-.25-.91ZM27.53,27.64c0,.16.05.3.16.42s.25.22.45.3c.2.08.44.15.72.19s.58.06.91.06.62-.02.89-.06c.27-.04.51-.1.71-.18.19-.08.35-.18.46-.3s.17-.26.17-.43c0-.15-.06-.28-.17-.4-.11-.11-.26-.21-.46-.3-.2-.08-.44-.13-.71-.18-.27-.04-.57-.06-.9-.06s-.62.02-.9.06c-.28.04-.51.1-.72.18-.19.08-.35.17-.45.29-.11.12-.16.25-.16.4ZM27.58,20.7c0,.14.06.27.17.38.11.11.26.21.46.3.19.09.41.16.68.21.27.05.56.07.87.07s.61-.02.87-.07c.27-.05.5-.11.69-.2.19-.08.35-.18.45-.3.11-.12.16-.25.16-.39,0-.13-.05-.26-.16-.38-.11-.12-.26-.22-.45-.32-.19-.09-.42-.17-.69-.22s-.56-.08-.87-.08-.62.03-.88.08-.49.13-.68.22c-.2.1-.35.21-.45.33s-.16.24-.16.37ZM29.76,25.37c.39,0,.75.03,1.09.08v-.69h-2.18v.69c.34-.05.7-.08,1.09-.08Z"/>
      <path class="st1" d="M41,28.96v.38c0,.13,0,.25.02.37h-1.48c.01-.13.02-.25.02-.38v-3.45h-2.96c-.23,0-.41-.01-.54-.04-.13-.03-.23-.09-.3-.2-.07-.09-.12-.23-.14-.42-.02-.18-.03-.44-.03-.76.15,0,.28.01.4.02.12,0,.24,0,.37,0h7.56c.24,0,.43.02.57.06.14.04.24.11.32.21.06.11.1.26.12.44s.03.42.03.71c-.15,0-.28-.01-.4-.02-.12,0-.24,0-.36,0h-3.2v3.08ZM41.16,20.33c.17.53.53,1,1.08,1.41s1.31.73,2.25.96l-.48.58c-.09.11-.17.22-.26.32-.08.11-.15.19-.21.26-.3-.08-.6-.18-.92-.31s-.63-.29-.92-.49c-.3-.18-.58-.4-.82-.64-.25-.24-.45-.52-.6-.83-.32.59-.75,1.06-1.29,1.41-.54.35-1.2.64-1.97.86-.05-.07-.11-.15-.2-.25-.08-.1-.17-.21-.26-.33l-.49-.58c.99-.24,1.76-.57,2.31-.97.54-.4.89-.87,1.05-1.4h-2.45c-.11,0-.22,0-.33.03v-1.44c.11.02.23.03.33.03h6.61c.11,0,.23,0,.35-.03v1.44c-.07-.02-.12-.03-.17-.03h-2.6Z"/>
      <path class="st1" d="M47.17,25.06c-.24,0-.42-.01-.55-.03-.13-.02-.23-.08-.3-.17-.07-.09-.11-.23-.13-.41s-.03-.43-.03-.75c.15,0,.28.02.4.02.12,0,.24,0,.37,0h1.05v-1.63c0-.09,0-.18-.01-.28s-.01-.17-.02-.23h1.46c-.01.1-.02.2-.02.31v1.82c.46,0,.87,0,1.23-.02s.69-.04.98-.07c.29-.03.54-.06.77-.11.22-.05.42-.11.6-.19v-3.86c0-.19-.01-.37-.02-.54,0-.17,0-.29-.02-.37h.81c.23,0,.39.07.49.21s.15.31.15.51v2.28h.37c.15,0,.3,0,.47,0s.32-.01.46-.03v1.49c-.14-.02-.29-.03-.46-.03-.16,0-.32,0-.47,0h-.37v3.34c0,.17,0,.34.02.5h-1.46c.01-.17.02-.34.02-.5v-1.64c-.16.07-.35.12-.57.17-.22.05-.49.08-.82.11-.33.03-.71.04-1.15.06s-.95.02-1.54.02l-1.71.03ZM52.1,19.06c0,.26-.03.58-.06.95-.03.37-.07.75-.11,1.13-.05.4-.11.77-.17,1.13s-.12.66-.18.89h-1.44c.03-.13.06-.29.1-.5.04-.21.08-.43.12-.67.04-.24.08-.5.11-.77.03-.27.06-.53.08-.78h-3.37c-.08,0-.16,0-.25,0-.08,0-.18.01-.3.02v-1.44c.07.02.13.03.19.03h5.25ZM47.71,26.81c0-.34-.01-.68-.04-1.01h1.47c-.01.1-.02.2-.02.3v2.02h5.12c.15,0,.31,0,.48-.03v1.44c-.19-.02-.36-.03-.53-.03h-6.48v-2.7Z"/>
      <path class="st1" d="M60.36,20.96c0,.7.05,1.32.14,1.85s.25,1.03.46,1.46c.2.45.47.86.8,1.23.33.37.73.75,1.21,1.12l-.98,1.08c-.5-.35-.95-.81-1.37-1.37s-.75-1.18-1.02-1.84c-.11.34-.26.67-.44,1-.18.33-.38.65-.58.94-.21.29-.44.56-.67.81s-.45.44-.66.59l-1.09-1.01c.95-.66,1.64-1.46,2.07-2.41.43-.95.65-2.1.65-3.45v-1.52c0-.11,0-.24-.02-.37h1.53c0,.13-.01.25-.02.35s0,.19,0,.27c0,.09-.01.19-.01.29v.98ZM63.37,19.47c0-.19-.01-.37-.02-.54s0-.29-.02-.37h.81c.23,0,.4.07.5.21.1.14.15.31.15.51v3.34h.44c.15,0,.3,0,.46,0,.16,0,.32-.01.46-.03v1.49c-.15-.02-.3-.03-.46-.03-.16,0-.32,0-.46,0h-.44v5.12c0,.17,0,.34.02.5h-1.46c.01-.17.02-.34.02-.5v-9.68Z"/>
    </g>
    <g>
      <polygon class="st1" points="115.26 18.26 112.8 18.26 112.8 33.63 115.26 33.63 115.26 23.8 117.55 23.8 117.55 22.43 115.26 22.43 115.26 18.26"/>
      <path class="st1" d="M106.93,28.91c-1.06,0-1.92-1.7-1.93-3.8,0-2.1.85-3.8,1.92-3.8,1.06,0,1.93,1.7,1.93,3.8,0,2.09-.85,3.8-1.92,3.8M108.14,17.9h-2.46v1.44h-3.36v1.38h2.3c-1.24.91-2.07,2.54-2.07,4.4,0,2.86,1.95,5.18,4.36,5.18s4.36-2.32,4.36-5.18c0-1.86-.83-3.49-2.07-4.4h2.3v-1.38h-3.37v-1.44Z"/>
      <path class="st1" d="M132.7,22.43h-2.28v-4.17h-2.47v9.29c-.41.4-1.03.82-1.88.81h-3.92c-.58,0-1.05-.47-1.05-1.04v-8.36s-2.44,0-2.44,0v8.36c.01,1.34,1.11,2.42,2.46,2.42h4.24s1.5.08,2.59-.92v4.8h2.47v-9.83h2.28v-1.37Z"/>
      <path class="st1" d="M139.56,19.29c1.07,0,1.93,1.36,1.94,3.06.01,1.69-.84,3.07-1.9,3.08-1.06,0-1.93-1.36-1.94-3.06-.01-1.69.84-3.08,1.9-3.08M143.86,22.36c0-2.46-1.95-4.45-4.36-4.45s-4.36,1.99-4.36,4.45c0,1.54.77,2.9,1.93,3.69h-4.52v1.44h1.89v3.69c0,1.34,1.1,2.43,2.46,2.43h8.31s0-1.38,0-1.38h-7.28c-.57,0-1.04-.47-1.04-1.04v-3.69h9.46v-1.44h-4.41c1.16-.8,1.93-2.15,1.93-3.69"/>
      <path class="st1" d="M150.47,26.32c-.6,0-1.1-1.12-1.11-2.5-.01-1.39.47-2.51,1.08-2.51.6,0,1.1,1.12,1.11,2.5,0,1.39-.48,2.51-1.08,2.52M153.99,23.81c0-1.27-.55-2.4-1.41-3.1h1.54v-1.38h-2.43v-1.44h-2.46v1.44h-2.45v1.38h1.55c-.86.71-1.41,1.84-1.41,3.1,0,2.15,1.58,3.9,3.53,3.9s3.54-1.74,3.54-3.9"/>
      <path class="st1" d="M156.56,32.69c-1.07,0-1.93-1.37-1.93-3.06,0-1.7.85-3.07,1.91-3.08,1.06,0,1.93,1.37,1.93,3.06,0,1.69-.85,3.07-1.91,3.07M158.54,22.72v3.02c-.35-.19-.73-.33-1.13-.41v-2.61h1.13ZM160.87,29.54v-11.27h-2.33v3.07h-1.13v-3.08h-2.34v7.21c-1.7.61-2.92,2.26-2.92,4.2,0,2.46,1.95,4.45,4.36,4.45s4.36-1.99,4.36-4.45c0-.04,0-.08,0-.13"/>
      <g>
        <path class="st1" d="M92.85,26.31c-.06-.36-.16-.7-.3-1.02-.45-.97-1.08-1.79-2.02-2.33-1.46-.85-3.22-.85-4.67.03-.65.4-1.19.96-1.54,1.65-.12.23-.21.47-.29.72-.38,1.21-.37,2.84.32,3.94.22.36.55.67.94.82.4.15.87.14,1.22-.1.46-.3.54-.86.46-1.37-.11-.64-.19-1.28.05-1.91.08-.2.18-.39.34-.54.09-.09.21-.16.32-.22.25-.12.53-.18.81-.13.48.08.87.45,1.08.88.21.43.27.93.29,1.41.1,2.11-.4,4.29-.94,6.32-.06.21-.11.42-.17.62-.05.16-.13.36-.03.52.04.07.11.11.19.14.31.13.57-.06.78-.28,1.24-1.24,2.03-2.85,2.57-4.5.2-.61.38-1.24.49-1.88.16-.87.25-1.87.09-2.79"/>
        <path class="st1" d="M101.7,16.57c0-.32-.28-.52-.58-.52-.3.01-.59.17-.87.28-5.44,2.07-11.57,2.46-17.3,1.63-.98-.14-1.97-.34-2.96-.49-.62-.1-1.23-.23-1.85-.28-.53-.04-1.19-.06-1.62.31-.57.49-.53,1.41-.2,2.03.39.73,1.06,1.28,1.76,1.7.68.4,1.49.84,2.31.79,2.19-.14,4.37-.35,6.55-.63,3.71-.48,7.61-.94,11.09-2.38,1.14-.47,2.26-1.06,3.24-1.82.18-.13.43-.36.43-.61"/>
        <path class="st1" d="M86.1,14.7c0,1.18.96,2.14,2.14,2.14s2.14-.96,2.14-2.14c0-.18-.04-.35-.12-.51-.18-.39-.39-.58-.37-1.04.03-.63-.78-.64-1.21-.64-.47,0-.98.07-1.4.28-.34.17-.63.44-.84.76-.21.33-.33.72-.34,1.11,0,.02,0,.03,0,.05"/>
      </g>
    </g>
  </g>
  <rect class="st0" width="358.04" height="47.24"/>
</svg>