<?xml version="1.0" encoding="UTF-8"?>
<svg id="_레이어_1" data-name="레이어_1" xmlns="http://www.w3.org/2000/svg" version="1.1" viewBox="0 0 397.9 380.2">
  <!-- Generator: Adobe Illustrator 30.6.0, SVG Export Plug-In . SVG Version: 2.1.4 Build 109)  -->
  <defs>
    <style>
      .st0 {
        fill: #ac7755;
      }

      .st1 {
        fill: #fff;
      }

      .st2 {
        fill: #08474f;
      }

      .st3 {
        fill: #42413e;
      }
    </style>
  </defs>
  <path class="st2" d="M394.5,0c-1,0-1.8.3-2.4.9-.6.6-.9,1.4-.9,2.3s.3,1.8.9,2.4c.6.6,1.4.9,2.4.9s1.8-.3,2.4-.9c.6-.6,1-1.4,1-2.4s-.3-1.7-1-2.3c-.6-.6-1.4-.9-2.4-.9Z"/>
  <g>
    <rect class="st0" x="1.1" y="354.6" width="69.3" height="25.6"/>
    <polygon class="st3" points="90.4 370 96.7 370 96.7 367.2 84.6 367.2 84.6 365.4 96.2 365.4 96.2 358 81.3 358 81.3 360.9 92.9 360.9 92.9 362.6 81.3 362.6 81.3 370 87.1 370 87.1 372.5 79.1 372.5 79.1 375.4 98.4 375.4 98.4 372.5 90.4 372.5 90.4 370"/>
    <path class="st3" d="M105.8,373.9h10.8v-17.3h-3.3v2.2h-4.1c-.4-.4-.9-.7-1.4-1-.9-.4-1.8-.6-2.9-.6s-2.1.2-2.9.6c-.9.4-1.6,1-2.1,1.8-.5.8-.8,1.7-.8,2.7s.3,1.9.8,2.7c.5.8,1.2,1.4,2.1,1.8.9.4,1.8.6,2.9.6s2-.2,2.9-.6c.5-.3,1-.6,1.4-1h4v2h-10.8v2.8h10.8v.6h-10.8v6.3h14.7v-2.8h-11.5v-.8ZM107.1,363.5c-.2.3-.5.6-.9.8-.8.4-1.9.4-2.7,0-.4-.2-.7-.4-.9-.8-.2-.3-.3-.7-.3-1.2s.1-.9.3-1.2c.2-.3.5-.6.9-.8.4-.2.8-.3,1.3-.3s1,0,1.4.3c.4.2.7.4.9.8.2.3.3.7.3,1.2s-.1.8-.3,1.2ZM113.3,363h-2.6c0-.2,0-.4,0-.6s0-.5,0-.7h2.7v1.3Z"/>
    <path class="st3" d="M135.3,356.6h-3.3v14.6-1.8c-.1,0-.6,0-.6,0-.7,0-1.4.2-2.2.2v-8.2h2v-2.9h-12.2v2.9h2v8.5c-.7,0-1.4,0-2,0h-.6l.4,2.9h.4c1.2,0,2.4,0,3.8,0,1.4,0,2.8-.1,4.3-.2,1.5-.1,2.9-.3,4.3-.5h.4c0,0,0,5.6,0,5.6h3.3v-10.4h3.1v-2.9h-3.1v-7.8ZM125.9,369.9c-.6,0-1.2,0-1.7,0v-8.5h1.7v8.4Z"/>
    <path class="st3" d="M152.3,364.1l-12.4.5.5,2.9,11.7-.6c0,.2,0,.4,0,.6-.1,1.1-.3,2.3-.6,3.6v.6c-.1,0,3.2.3,3.2.3v-.4c.4-1.4.6-2.7.7-3.9.1-1.1.2-2.2.2-3.2,0-1,0-2,0-3v-2.9h-15v2.9h11.8c0,.9,0,1.8,0,2.7Z"/>
    <rect class="st3" x="138.4" y="372.2" width="19.2" height="2.9"/>
    <path class="st3" d="M172.8,370.9l-.2-.2c-.6-.4-1.1-.9-1.4-1.5-.4-.6-.7-1.3-.9-2-.2-.7-.4-1.4-.4-2.2,0-.7-.1-1.5-.1-2.2v-4.5h-3.2v4.5c0,.7,0,1.4-.1,2.2,0,.7-.2,1.5-.4,2.2-.2.6-.4,1.2-.7,1.7-.3-.6-.5-1.2-.7-1.8-.2-.7-.3-1.5-.4-2.2,0-.7-.1-1.5-.1-2.1v-4.5h-3.2v4.5c0,.7,0,1.4-.1,2.2,0,.7-.2,1.5-.4,2.2-.2.7-.5,1.4-.9,2-.4.6-.8,1.1-1.4,1.5l-.4.3,2.2,2.4.4-.3c.7-.6,1.3-1.2,1.7-2,.2-.4.4-.8.6-1.2.2.5.4,1,.7,1.4.5.8,1.1,1.5,1.8,2.1l.3.4h.1c0,0,.1,0,.1,0l.3-.3c.7-.6,1.3-1.3,1.8-2.1.3-.5.5-.9.7-1.4.2.5.4.9.7,1.3.5.8,1.1,1.5,1.8,2l.4.3,1.9-2.2v6.5h3.3v-21.1h-3.3v14.2Z"/>
    <rect class="st3" x="192.3" y="356.6" width="3.3" height="21.1"/>
    <path class="st3" d="M190.7,369.6c-1,.2-2,.3-3,.4-1,0-2,.1-3,.2-.7,0-1.5,0-2.3,0v-3.3h6.9v-2.8h-6.9v-2.7h7.6v-2.9h-10.9v14.7h2.2c1.3,0,2.4,0,3.5,0,1.1,0,2.1,0,3.1-.2,1,0,2.1-.2,3.1-.4h.5c0,0-.3-2.9-.3-2.9h-.5Z"/>
    <path class="st3" d="M215.4,361.3s.3-.2,1.3-.2h1v-2.6h-15.7v2.6h1c1,0,1.2.1,1.3.1,0,0,0,0,0,.3v12c0,0,0,.1,0,.1,0,0-.3.2-1.3.2h-1v2.6h15.7v-2.6h-1c-1.1,0-1.3-.2-1.3-.2,0,0,0,0,0-.1v-12c0-.2,0-.3,0-.3ZM212,373.6c0,0,0,.1,0,.1,0,0-.3.2-1.3.2h-1.8c-1.1,0-1.3-.2-1.3-.2,0,0,0,0,0-.1v-12c0-.2,0-.3,0-.3,0,0,.3-.2,1.3-.2h1.8c1,0,1.2.1,1.3.1,0,0,0,0,0,.3v12Z"/>
    <polygon class="st1" points="25.2 357.6 22.1 359.7 22.1 372.6 25.2 370.7 25.2 357.6"/>
    <path class="st1" d="M15.2,365.5c.3.6.7,1.1,1.2,1.5.8.8,1.7,1.4,2.8,1.8l.4.2,1.7-2.6-.7-.2c-.6-.2-1.2-.5-1.7-.9-.5-.4-.9-.8-1.2-1.3-.3-.5-.6-1-.8-1.5-.2-.5-.3-1.1-.3-1.7v-2.3h-3.1v2.3c0,.8-.2,1.5-.5,2.3-.3.7-.7,1.4-1.3,2-.6.6-1.3,1-2.2,1.4l-.6.2,1.7,2.5.4-.2c1.1-.4,2.1-1.1,2.9-1.9.5-.5.9-1.1,1.3-1.7Z"/>
    <polygon class="st1" points="15.1 370.2 12 370.2 12 376.3 25.3 376.3 25.3 373.5 15.1 373.5 15.1 370.2"/>
    <polygon class="st1" points="39.5 368.2 42.6 368.2 42.6 357.6 39.5 357.6 39.5 362.2 37 362.2 37 365 39.5 365 39.5 368.2"/>
    <polygon class="st1" points="49.4 369.8 46.3 369.8 46.3 376.4 59.3 376.4 59.3 373.7 49.4 373.7 49.4 369.8"/>
    <polygon class="st1" points="58.9 362.6 58.9 357.5 55.8 357.5 55.8 371.4 58.9 371.4 58.9 365.4 61.4 365.4 61.4 362.6 58.9 362.6"/>
    <path class="st1" d="M49.9,368.4c1,0,1.8-.1,2.6-.2.8,0,1.6-.2,2.3-.4v-2.8c-.8.1-1.9.4-2.6.5-.7,0-1.5.1-2.4.2-.6,0-1.3,0-2.1,0v-3.9h5.3v-2.7h-8.4v9.4h2c1.3,0,2.4,0,3.3,0Z"/>
    <path class="st1" d="M39.5,369h-9.5v7.8h12.6v-7.8h0s-3.1,0-3.1,0h0ZM39.6,374.1h-6.4v-2.4h6.4v2.4Z"/>
    <path class="st1" d="M35.6,363.6c.5-.8.8-2,.8-2,.2-.8.4-1.7.4-2.6v-.5h-9.1v2.7h5.7c-.1.4-.3.9-.5,1.3-.5.8-1.2,1.5-2.1,2.1-1,.6-2.2,1.1-3.6,1.5l-.6.2,1.3,2.6h.4c.5-.3,1-.4,1.5-.6h0s.3-.1.3-.1c1-.4,1.9-.9,2.7-1.4,1.2-.9,2.2-1.9,2.8-3.1Z"/>
    <path class="st0" d="M151.9,314.6c-2.5-2.3-5.7-2.3-6.5-2.3h-11.9v28.8h6v-9.4h5.9s0,0,.1,0c.8,0,4-.2,6.5-2.6,1.3-1.2,2.7-3.5,2.7-7.3,0-3.9-1.5-6.1-2.8-7.3ZM147.9,324.8c-.9.9-2.3.9-2.4.9h-5.9v-7.4h6.1s1.4,0,2.2.7c.6.5.9,1.5.9,2.9,0,1.3-.3,2.3-.9,2.9Z"/>
    <path class="st2" d="M192.1,319.2c-.4,0-.9-.1-1.5-.1-1.3,0-2.6.4-3.7,1.3s-1.2,1.1-1.7,2.1v-3.1h-5.6v21.6h5.6v-11.6c0-.9.2-1.7.7-2.5s1-1.3,1.6-1.8c1.7-1.3,3.3-1.1,5.1-.5l1-5-.4-.2c-.4-.1-.8-.3-1.2-.3Z"/>
    <path class="st2" d="M243.3,330.9c-1,2.9-2.9,4.3-5.7,4.3-4.1,0-6.6-3.4-6.6-9.2s2.5-9.1,6.7-9.1,4.9,1.4,5.6,4.4v.4h6.3v-.5c-.4-3.5-3.2-9.4-11.8-9.4s-13.3,6-13.3,14.5,5,14.2,13,14.2,11.3-5.8,12.1-9.2l.2-.6h-6.3v.3Z"/>
    <path class="st2" d="M256.9,309.8c-1,0-1.8.3-2.4.9-.6.6-.9,1.4-.9,2.3s.3,1.8.9,2.4c.6.6,1.4.9,2.4.9s1.8-.3,2.4-.9c.6-.6,1-1.4,1-2.4s-.3-1.7-1-2.3c-.6-.6-1.4-.9-2.4-.9Z"/>
    <rect class="st2" x="254" y="319.7" width="5.6" height="20.9"/>
    <path class="st2" d="M275.7,336.1c-.3.1-.6.2-1,.3-.4,0-.7.1-1.1.1-1,0-1.7-.3-2.1-.8-.4-.6-.7-1.5-.7-2.7v-9.2h4.4v-4.4h-4.4v-5.2h-5.3v5.2h-3.5v4.4h3.2v9.2c0,1.6.2,3,.7,4.2.5,1.3,1.2,2.3,2.3,3,1.1.7,2.5,1.1,4.2,1.1s1.7,0,2.5-.3c.7-.2,1.4-.4,2-.6h.4c0-.1-1.1-4.6-1.1-4.6l-.5.2Z"/>
    <path class="st2" d="M307.8,335.6l4.8-4.7c1.7-1.6,3-3.1,3.9-4.2,1-1.2,1.6-2.3,2.1-3.3.4-1,.6-2.1.6-3.2s-.4-3-1.3-4.2c-.8-1.3-2-2.2-3.4-3-1.4-.7-3.1-1.1-4.8-1.1s-3.4.4-4.9,1.1c-1.5.7-2.7,1.8-3.5,3.1-.9,1.3-1.3,2.9-1.3,4.6v1h5.2v-1c0-.8.2-1.5.5-2.1.3-.6.8-1,1.5-1.3.7-.3,1.5-.5,2.4-.5s1.7.2,2.4.5c.7.3,1.2.7,1.6,1.2.4.5.5,1.1.5,1.7s-.1,1.2-.4,1.8c-.3.6-.7,1.3-1.3,2-.6.7-1.6,1.7-2.8,3l-9.7,9.7v3.8h19.9v-4.9h-11.9Z"/>
    <path class="st2" d="M288.9,328.9c-.3,1-.6,2-.9,3.1-.2.6-.3,1.2-.5,1.8-.2-.6-.4-1.2-.6-1.9-.3-1.1-.7-2.1-1-3.1l-3.2-9h-5.7l7.3,18.4c.3.8.4,1.8,0,2.6h0c-.4,1.1-.9,2-1.6,2.8-.6.7-1.4,1-2.5,1s-.5,0-.7-.1c-.3,0-.6-.1-.8-.2h-.5c0-.1-1.1,4.4-1.1,4.4h.4c.4.3.9.4,1.3.5.5,0,1,.1,1.6.1,1.6,0,3-.4,4.2-1.1,1.1-.7,2.1-1.7,2.9-2.9.8-1.2,1.5-2.6,2-4.2l7.4-21.3h-5.4l-2.8,9Z"/>
    <path class="st2" d="M172.3,321c-3.3-2.6-8.1-1.8-8.8-1.7-4.2.8-6.3,4.3-6.9,6.5h5.9c.2-1.6,2.1-2.6,3.6-2.5s3.2.7,3.5,3-.6,1.7-1.5,1.8c-3.7.4-6.5.6-8.4,1.6-2.2,1.3-3.4,3.1-3.4,5.4s.3,2.4.9,3.3c.6.9,1.4,1.7,2.5,2.2,1,.5,2.2.8,3.6.8s2.7-.3,4-.9c1-.5,1.4-1,2.2-1.6v2h5.6v-14c0-3.6-1.6-4.9-2.9-5.9ZM169.6,335c-.8.7-1.6,1.2-2.4,1.6-4.9,2.5-8-3.2-2.2-4.9,1.1-.3,2.6-.6,4.5-.7v4Z"/>
    <path d="M35.4,339h-1.1l-10.1-14c2.2-.6,4.3-1.9,5.8-3.8,4.1-5.2.5-12-4.5-13.7-1.9-.7-4-1-6-.9h-6.7c-1.3,0-12.8,0-12.8,0v.8h1.4c2,0,3.6,1.6,3.6,3.6v26.3c0,1.7-1.3,3-3,3H0v.6h17.8v-.6h-2c-1.7,0-3-1.3-3-3v-12.1h2.5s11.3,15.7,11.3,15.7h10.7c0-1-.8-1.8-1.8-1.8ZM19.8,323.1c-1,.5-1.8.7-2.7.7h-3.4c-.5,0-.9-.4-1-.9v-14.1c0-.5.4-.9,1-.9h3.4c6.8-.4,8.4,12,2.7,15.2Z"/>
    <path d="M57.9,324.7c-.6-1.5-1.4-2.8-2.4-3.9-1-1.1-2.2-2-3.6-2.6-1.4-.7-2.9-1-4.5-1s-3.1.3-4.5,1c-1.4.7-2.6,1.5-3.6,2.6-1,1.1-1.8,2.4-2.4,3.9-.6,1.5-.9,3.1-.9,4.7s.3,3.3.9,4.7c.6,1.5,1.4,2.8,2.4,3.9,1,1.1,2.2,2,3.6,2.6,1.4.6,2.9,1,4.5,1s3.1-.3,4.5-1c1.4-.6,2.6-1.5,3.6-2.6,1-1.1,1.8-2.4,2.4-3.9.6-1.5.9-3.1.9-4.7s-.3-3.2-.9-4.7ZM47.5,340.8c-2.4,0-4.3-5.1-4.3-11.4s1.9-11.4,4.3-11.4,4.3,5.1,4.3,11.4-1.9,11.4-4.3,11.4Z"/>
    <g>
      <path d="M60.3,347.9c0,0,0,0,0,0s0,0,0,0Z"/>
      <path d="M63.3,344.6c.2,0-.2,0,0,0h0Z"/>
    </g>
    <g>
      <path d="M76,317.9v.6c2,.2,4.3,1.1,2.9,4.9l-3.9,9.7-4.8-12.2c-.6-2.3,2.8-2.3,2.8-2.3v-.6h-13.7v1c1.5,0,3,1.3,3.5,2.4l8.3,21.6-1.7,3.9-.8,1.5c-.2.4-.7.7-1.1.6-.4-.1-.6-.6-.6-1.2,0-1.7-1.4-3.2-3.6-3.1-2.1.2-3,1.8-3,3.3s2.1,4,4.8,4c2.4,0,4.6-1.2,5.9-4.3,0,0,7.2-17.4,10.2-24.8.7-1.8,2.1-3.3,3.8-4.2v-.6h-8.9Z"/>
      <path d="M71,347.5c0,0,0,0,0,0h0Z"/>
    </g>
    <path d="M117.9,338.2v-31.8h-10v.7h1.4c1.2,0,2.2,1,2.2,2.2v28.9c0,1.1-.9,2-2,2h-1.6v.7h13.6v-.7h-1.6c-1.1,0-2-.9-2-2Z"/>
    <polygon points="91.9 321.2 91.9 321.2 91.9 321.2 91.9 321.2"/>
    <path d="M104.9,336.6v-12.5c0-3.6-2.5-6.7-7.2-6.8h-3.4c-5,0-9,3-9.1,6.2,0,2.7,2.7,5.2,5.5,3.8,1.1-.6,2-1.7,2.1-3,.2-1.4-.5-2.7-1.5-3.5,0,0,0-1.9,3.1-2.1,2.2.1,2.8,1.7,2.8,2.7v4.8c-8,4.4-9.5,5.6-9.5,5.6-2.8,1.8-3.8,5.3-2.1,7.8h0c1.7,2.5,6.2,2.8,9.3.8l2.4-1.8c.4,1.8,1.9,3.1,3.8,3.1h1c1.7,0,3.3-.7,4.5-2l1.4-1.6h-1.6c-.9,0-1.6-.7-1.6-1.6ZM97.2,336.5l-.6.5c-.7.5-.9.8-1.7.9-.9,0-1.7-.3-2.4-1.2-1.1-1.8,0-4.2,1.5-5.3l3.2-2.6v7.7Z"/>
    <path d="M85.2,323.6c0-.2,0,.2,0,0h0Z"/>
    <polygon class="st2" points="206.3 328.7 214.4 319.5 207.7 319.5 200.4 327.8 200.4 312.5 194.9 312.5 194.7 340.9 200.2 340.9 200.4 335.1 202.7 332.6 208.6 340.9 214.8 340.9 206.3 328.7"/>
  </g>
</svg>