<?xml version="1.0" encoding="UTF-8"?>
<svg id="_레이어_1" data-name="레이어_1" xmlns="http://www.w3.org/2000/svg" version="1.1" viewBox="0 0 403.19 47.24">
  <!-- Generator: Adobe Illustrator 30.7.0, SVG Export Plug-In . SVG Version: 2.1.4 Build 63)  -->
  <defs>
    <style>
      .st0 {
        fill: none;
      }

      .st1 {
        fill: #fff;
      }
    </style>
  </defs>
  <g>
    <g>
      <g>
        <path class="st1" d="M345.76,22.18h-.3c-.1,0-.21,0-.32.03v-1.48c.11.02.21.03.31.03h4.21c-.01.14-.02.28-.02.43v4.41h-3.12v2.1c.32,0,.67,0,1.02-.03.36-.02.72-.04,1.07-.08.36-.03.7-.06,1.04-.1.34-.04.64-.1.92-.16v1.43c-.27.07-.58.13-.94.17-.36.05-.74.08-1.15.11-.4.03-.82.06-1.25.06-.43,0-.86.01-1.28.01h-.83v-4.95h3.12v-1.98h-2.51ZM351.15,20.93c0-.2-.01-.38-.02-.56,0-.17,0-.3-.01-.38h.78c.23,0,.39.07.48.21s.14.32.14.53v10.15c0,.17,0,.35.02.52h-1.41c.01-.17.02-.35.02-.52v-9.96Z"/>
        <path class="st1" d="M358.11,27.74c0-.25,0-.51,0-.77,0-.26-.02-.51-.03-.75h1.46c-.01.25-.02.49-.02.71,0,.22,0,.45,0,.69v1.27h2.83c.23,0,.42.02.55.06.13.04.23.11.31.21.06.11.1.26.12.45.02.19.03.43.03.73-.14,0-.27-.02-.39-.02s-.23,0-.35,0h-7.32c-.22,0-.39-.02-.52-.05-.13-.03-.22-.1-.29-.2-.07-.1-.11-.24-.13-.43-.02-.19-.02-.45-.02-.78.14,0,.27.02.38.02.11,0,.23,0,.35,0h3.07v-1.15ZM359.56,22.12c.06.67.38,1.32.97,1.95.59.62,1.43,1.14,2.54,1.54l-.47.6c-.09.11-.18.22-.26.33s-.15.2-.2.27c-.3-.09-.61-.22-.94-.39-.33-.17-.65-.38-.96-.62-.3-.23-.58-.49-.84-.77-.26-.28-.45-.57-.6-.86-.26.54-.66,1.05-1.21,1.52s-1.21.84-1.99,1.13c-.06-.08-.14-.17-.24-.27s-.19-.21-.29-.32c-.1-.11-.19-.22-.29-.32s-.17-.19-.24-.27c.41-.16.81-.33,1.22-.52.4-.19.78-.42,1.11-.69.32-.27.59-.59.81-.96.21-.37.34-.81.37-1.32h-2.44c-.11,0-.21,0-.33.03v-1.47c.11.02.22.03.33.03h6.04c.11-.01.22-.01.33-.01s.22,0,.33-.01v1.47c-.12-.02-.23-.03-.34-.03h-2.43Z"/>
        <path class="st1" d="M365.16,30.4c-.22,0-.39-.02-.52-.05-.13-.03-.22-.1-.29-.2-.07-.1-.11-.24-.13-.43-.02-.19-.02-.45-.02-.78.14,0,.27.02.38.02s.23,0,.35,0h7.28c.23,0,.42.02.55.06.13.04.23.11.31.21.06.11.1.26.12.45.02.19.03.43.03.73-.14,0-.27-.02-.39-.02s-.23,0-.35,0h-7.32ZM366.67,25.81h5.06c.14,0,.27,0,.41-.03v1.48c-.14-.02-.27-.03-.41-.03h-6.43v-5.28c0-.18,0-.37,0-.55,0-.19-.01-.37-.02-.56h6.38c.13,0,.26,0,.4-.03v1.47c-.24,0-.47-.01-.68-.01h-4.7v1.01h5.03c.1,0,.22,0,.34-.03v1.48c-.12-.02-.24-.03-.34-.03h-5.03v1.1Z"/>
        <path class="st1" d="M379.3,30.7v.4c0,.13,0,.26.02.38h-1.43c.01-.13.02-.26.02-.39v-3.1h-2.86c-.22,0-.39-.02-.52-.05-.13-.03-.22-.1-.29-.2-.07-.09-.11-.24-.13-.43-.02-.19-.02-.45-.02-.78.14,0,.27.02.38.02s.23,0,.35,0h7.28c.23,0,.42.02.55.06.13.04.23.11.31.21.06.11.1.26.12.45.02.19.03.43.03.73-.14,0-.27-.02-.39-.02-.12,0-.23,0-.35,0h-3.08v2.71ZM380.65,20.96v-.38c0-.13,0-.28-.02-.44h1.4c-.01.14-.02.27-.02.4v4.98h-6.82v-4.94c0-.14,0-.29-.02-.44h1.43c-.01.15-.02.28-.02.4v.95h4.07v-.53ZM380.65,22.92h-4.07v1.18h4.07v-1.18Z"/>
        <path class="st1" d="M389.34,28.27c0,.09,0,.17,0,.27,0,.09,0,.21.02.34h-1.41c0-.14.01-.25.02-.34,0-.09,0-.18,0-.27v-1.58h-3.02c-.22,0-.39-.02-.52-.05-.13-.03-.22-.1-.29-.2-.07-.1-.11-.24-.13-.43-.02-.19-.02-.45-.02-.78.14,0,.27.02.38.02.11,0,.23,0,.35,0h7.28c.23,0,.42.02.55.06.13.04.23.11.31.21.06.11.1.26.12.45.02.19.03.43.03.73-.14,0-.27-.02-.39-.02s-.23,0-.35,0h-2.93v1.58ZM385.09,24.54v-2.78c0-.25,0-.49,0-.72s-.01-.47-.02-.73h6.88c-.02.26-.03.5-.03.73s0,.47,0,.72v2.78h-6.82ZM385.14,28.44c0-.32-.01-.64-.04-.95h1.42c-.01.1-.02.19-.02.27v2.04h5.16c.16,0,.33,0,.51-.03v1.48c-.18-.02-.35-.03-.52-.03h-6.5v-2.79ZM386.46,23.11h4.09v-1.37h-4.09v1.37Z"/>
      </g>
      <g>
        <path class="st1" d="M317.19,20.93h8.39v-5.21h-10.37v5.21h1.98ZM323.61,17.4v1.82h-6.42v-1.82h6.42Z"/>
        <polygon class="st1" points="314.03 23.61 319.34 23.61 319.34 24.63 315.17 24.63 315.17 26.33 323.61 26.33 323.61 27.11 317.19 27.11 317.19 27.1 315.21 27.1 315.21 31.46 315.4 31.46 317.19 31.46 325.58 31.46 325.58 29.77 317.19 29.77 317.19 28.8 325.58 28.8 325.58 28.78 325.58 27.11 325.58 24.63 323.61 24.63 323.61 24.63 321.31 24.63 321.31 23.61 326.74 23.61 326.74 21.91 314.03 21.91 314.03 23.61"/>
        <polygon class="st1" points="339.38 18.94 339.38 15.3 337.4 15.3 337.4 26.37 339.38 26.37 339.38 20.64 341.23 20.64 341.23 18.94 339.38 18.94"/>
        <polygon class="st1" points="331.69 24.5 329.72 24.5 329.72 31.42 329.91 31.42 331.69 31.42 339.45 31.42 339.45 29.73 331.69 29.73 331.69 24.5"/>
        <path class="st1" d="M331.68,19.65c.61,1.94,3.07,3.56,3.07,3.56l1.05-1.45c-3.44-1.73-3.17-6.25-3.17-6.25h-1.9s.27,4.53-3.18,6.25l1.06,1.45s2.46-1.62,3.07-3.56Z"/>
        <polygon class="st1" points="298.51 20.69 300.29 20.69 300.29 18.98 298.54 18.98 298.54 15.45 296.49 15.45 296.49 23.81 298.51 23.81 298.51 20.69"/>
        <path class="st1" d="M288.89,31.33h9.65v-6.84h-9.65v6.84ZM290.86,26.16h5.71v3.5h-5.71v-3.5Z"/>
        <path class="st1" d="M307.44,23.71c-3,0-5.43,1.83-5.43,4.09s2.43,4.08,5.43,4.08,5.43-1.83,5.43-4.08-2.43-4.09-5.43-4.09ZM307.44,30.08c-1.87,0-3.38-1.02-3.38-2.28s1.51-2.29,3.38-2.29,3.38,1.02,3.38,2.29-1.51,2.28-3.38,2.28Z"/>
        <path class="st1" d="M290.69,19.89c.61,1.94,3.29,3.71,3.29,3.71l1.05-1.45c-3.66-1.88-3.4-6.4-3.4-6.4h-1.9s.27,4.52-3.39,6.4l1.05,1.45s2.68-1.77,3.29-3.71Z"/>
        <path class="st1" d="M304.35,19.89c.61,1.94,3.07,3.56,3.07,3.56l1.05-1.45c-3.44-1.72-3.17-6.25-3.17-6.25h-1.9s.27,4.52-3.17,6.25l1.05,1.45s2.46-1.62,3.07-3.56Z"/>
        <polygon class="st1" points="310.46 23.8 312.47 23.8 312.47 15.43 310.42 15.43 310.42 18.25 307.83 18.25 307.83 19.96 310.46 19.96 310.46 23.8"/>
      </g>
      <path class="st1" d="M262.82,11.43c-14.53-1.44-35.76,1.68-50.55,7.65l-.88.38c.27-.01.45,0,.45,0,2.46.07,2.31,1.6,2.31,1.6v.93s-1.96,0-1.96,0v-.63c0-.45-.55-.48-.55-.48-.42,0-.52.29-.52.29-.23.44.16.81.16.81.2.22,1.22.7,1.22.7.33.13.86.46.86.46,1,.6.91,1.74.91,1.74v.75c-.12,1.86-2.69,1.81-2.69,1.81-2.69,0-2.63-1.76-2.63-1.76v-.92h2.09v.64c0,.54.52.56.52.56.57.02.62-.53.62-.53.08-.54-.51-.88-.51-.88-.59-.3-1.56-.83-1.56-.83-.48-.31-.68-.6-.68-.6-.34-.44-.32-1.11-.32-1.11v-.59c0-.81.22-1.04.22-1.04,0,0,0,0,0-.01-14.47,6.77-12.82,13.8.66,15.11,14.74,1.43,37-1.41,51.96-8.09-.05,0-.09.01-.13.01,0,0-2.53.2-2.59-1.84v-3.95s-.32-2.18,2.52-2.18c0,0,1.85-.06,2.33,1.04,0,0,.24.29.18,1.51h-1.97v-.62s0-.5-.51-.5c0,0-.53.02-.53.44v4.08s-.02.55.58.55c0,0,.49,0,.49-.59v-1.18h-.54v-1.1h2.53v2.32s0,.49-.21.77c0,0-.14.22-.24.32l.82-.41c13.25-6.79,11.59-13.29-1.89-14.62ZM220,27.16l-.76-5.78h-.17l-.76,5.78h-2.09l1.29-7.45h3.3l1.29,7.45h-2.09ZM230.56,27.17l-.05-5.62h-.14l-1.02,5.62h-2.04l-1.03-5.62h-.15l-.02,5.62h-1.94l.16-7.46h3.28l.63,4.08h.15l.66-4.08h3.25l.21,7.46h-1.95ZM240.01,24.87v.75c-.12,1.86-2.69,1.81-2.69,1.81-2.69,0-2.63-1.76-2.63-1.76v-.92h2.09v.64c0,.54.52.56.52.56.57.02.62-.53.62-.53.08-.54-.51-.88-.51-.88-.59-.3-1.56-.83-1.56-.83-.48-.31-.68-.6-.68-.6-.35-.44-.32-1.11-.32-1.11v-.59c0-.81.22-1.04.22-1.04.56-1.04,2.49-.91,2.49-.91,2.46.07,2.31,1.6,2.31,1.6v.93s-1.96,0-1.96,0v-.63c0-.45-.55-.48-.55-.48-.42,0-.52.29-.52.29-.23.44.17.81.17.81.2.22,1.22.7,1.22.7.33.13.86.46.86.46,1,.6.91,1.74.91,1.74ZM247.69,25.37c0,2.05-2.6,2.02-2.6,2.02-2.99,0-2.77-2.12-2.77-2.12v-5.59h2.13v5.64c0,.63.61.6.61.6.57,0,.54-.62.54-.62v-5.62h2.08v5.69ZM256.65,27.17h-2.32l-2.07-4.56h-.09l.11,4.56h-1.94v-7.45h2.39l2,4.52h.09l-.14-4.52h1.97v7.45Z"/>
    </g>
    <g>
      <path class="st1" d="M171.67,25.61c0-.24,0-.49-.01-.75,0-.26-.02-.5-.03-.72h1.51c-.01.24-.02.47-.03.69s0,.44,0,.67v1.24h2.93c.24,0,.43.02.57.06.14.04.24.11.32.21.06.11.1.26.12.44s.03.42.03.71c-.15,0-.28-.01-.4-.02-.12,0-.24,0-.36,0h-7.6c-.23,0-.41-.02-.54-.04-.13-.03-.23-.09-.3-.2-.07-.09-.12-.23-.14-.42-.02-.18-.03-.44-.03-.76.15,0,.28.02.4.02.12,0,.24,0,.37,0h3.19v-1.12ZM173.17,20.15c.06.66.39,1.29,1,1.89s1.49,1.1,2.64,1.5l-.48.58c-.09.11-.18.22-.27.32-.08.11-.15.19-.21.26-.31-.08-.63-.21-.97-.38-.34-.17-.67-.37-.99-.61-.32-.23-.61-.48-.87-.75s-.47-.55-.62-.84c-.27.53-.69,1.02-1.25,1.47-.57.45-1.25.82-2.06,1.1-.07-.08-.15-.16-.25-.26-.1-.1-.2-.21-.3-.32s-.2-.21-.3-.32-.18-.19-.25-.26c.42-.15.85-.32,1.26-.5.42-.18.8-.41,1.15-.67.34-.26.62-.57.84-.93.22-.36.35-.79.38-1.29h-2.53c-.11,0-.22,0-.34.03v-1.42c.11.02.23.03.34.03h6.26c.11-.01.23-.01.34-.01s.23,0,.35-.01v1.42c-.12-.02-.24-.03-.35-.03h-2.52Z"/>
      <path class="st1" d="M179.74,19.66c-.35,0-.7.01-1.05.04v-1.46c.35.03.71.04,1.07.04h3.83c-.04.79-.19,1.51-.44,2.16s-.58,1.22-.99,1.71c-.42.5-.9.93-1.46,1.27-.56.34-1.17.61-1.84.79l-.85-1.06c1.07-.29,1.93-.74,2.59-1.34.66-.6,1.08-1.31,1.25-2.16h-2.11ZM179.47,26.72c0-.34.08-.65.24-.95.16-.3.39-.56.7-.79.3-.23.68-.41,1.13-.54.45-.13.96-.2,1.54-.2s1.11.07,1.56.2.83.3,1.13.52c.3.23.53.49.69.79.16.3.24.62.24.95,0,.73-.31,1.32-.93,1.76-.62.44-1.52.66-2.69.66s-2.06-.22-2.68-.65c-.62-.43-.93-1.02-.93-1.76ZM180.99,26.7c0,.15.05.29.15.43s.25.25.43.35c.18.1.4.18.67.23.26.05.55.08.88.08.3,0,.58-.03.84-.08s.49-.13.68-.23c.19-.09.33-.21.44-.34.1-.13.16-.28.16-.44,0-.18-.05-.33-.16-.47-.11-.13-.26-.25-.44-.34-.19-.09-.42-.16-.68-.21-.26-.05-.54-.08-.83-.08-.66,0-1.18.11-1.56.32s-.57.47-.57.78ZM185.16,19.29l-.04-1.51h.82c.23,0,.4.07.5.21.1.14.15.31.15.51v4.01c0,.28,0,.56,0,.86,0,.29.01.58.03.84h-1.45v-1.24h-.73c-.14,0-.29,0-.46,0-.16,0-.32.01-.46.03v-1.49c.14.02.29.03.46.03.16,0,.32,0,.46,0h.73v-.86h-.5c-.15,0-.3,0-.46,0-.16,0-.32.01-.46.03v-1.49c.15.02.3.03.46.03.16,0,.32,0,.46,0h.5Z"/>
      <path class="st1" d="M183.69,23.45"/>
    </g>
  </g>
  <g>
    <g>
      <path class="st1" d="M12.31,20.87c0,.7.05,1.32.16,1.86.1.54.26,1.03.48,1.47.21.45.48.86.82,1.23.34.37.74.74,1.21,1.1l-.98,1.08c-.5-.35-.97-.81-1.4-1.37-.43-.56-.78-1.18-1.05-1.84-.11.33-.26.66-.45.99-.19.33-.39.65-.61.94-.22.3-.45.58-.69.82-.23.24-.45.44-.65.59l-1.09-1.01c.95-.66,1.65-1.46,2.1-2.41.45-.95.68-2.1.68-3.45v-1.52c0-.11-.01-.24-.03-.37h1.54c0,.13-.01.25-.02.35,0,.1-.01.19-.01.27,0,.09-.01.19-.01.29v.98ZM15.5,19.38c0-.19-.01-.37-.02-.54s0-.29-.02-.37h.8c.24,0,.4.07.5.21.1.14.15.31.15.51v9.87c0,.17,0,.34.02.5h-1.45c.01-.17.02-.34.02-.5v-9.68Z"/>
      <path class="st1" d="M23.49,23.17h3.55c.24,0,.43.02.57.06.14.04.24.11.32.21.06.11.1.26.12.44s.03.42.03.71c-.15,0-.28-.01-.4-.02-.12,0-.24,0-.36,0h-7.6c-.23,0-.41-.01-.54-.04-.13-.03-.23-.09-.3-.2-.07-.09-.12-.23-.14-.42-.02-.18-.03-.44-.03-.76.15,0,.28.02.4.02.12,0,.24,0,.37,0h2.57v-.45c0-.24,0-.49-.01-.75,0-.26-.02-.5-.03-.72h1.51c-.01.24-.02.47-.03.69,0,.21,0,.44,0,.67v.57ZM23.39,29.84c-.6,0-1.14-.06-1.61-.18-.47-.12-.86-.29-1.16-.5-.32-.22-.56-.47-.72-.75s-.24-.59-.24-.91.08-.63.25-.92c.17-.29.41-.53.73-.74.32-.21.72-.38,1.18-.5.46-.12.99-.18,1.57-.18s1.12.06,1.58.18c.46.12.86.29,1.18.5.32.21.56.46.73.74.17.29.25.59.25.92s-.08.63-.25.92c-.16.29-.4.53-.71.74-.32.21-.72.38-1.18.5-.46.12-1,.18-1.6.18ZM27.12,18.62c0,.25-.03.56-.06.93s-.07.74-.12,1.13c-.05.39-.1.76-.16,1.12-.06.36-.12.66-.18.91h-1.42c.1-.38.19-.8.26-1.25.07-.46.12-.91.15-1.34h-5.48c-.13,0-.28,0-.42.03v-1.54c.07.02.13.03.19.03h7.23ZM21.16,27.48c0,.17.05.32.16.44.11.13.26.23.45.32.2.09.44.16.71.21.27.05.57.07.9.07s.62-.02.89-.07c.27-.05.51-.12.71-.21.19-.08.35-.19.46-.32s.17-.27.17-.44c0-.15-.06-.29-.17-.42-.11-.13-.27-.23-.46-.32s-.43-.15-.7-.2c-.27-.05-.57-.07-.9-.07s-.62.02-.9.06c-.28.04-.51.11-.72.19-.19.08-.35.19-.45.32-.11.13-.16.27-.16.43Z"/>
      <path class="st1" d="M32.69,20.87c0,.7.05,1.32.14,1.85s.25,1.03.46,1.46c.2.45.47.86.8,1.23.33.37.73.75,1.21,1.12l-.98,1.08c-.5-.35-.95-.81-1.37-1.37s-.75-1.18-1.02-1.84c-.11.34-.26.67-.44,1-.18.33-.38.65-.58.94-.21.29-.44.56-.67.81s-.45.44-.66.59l-1.09-1.01c.95-.66,1.64-1.46,2.07-2.41.43-.95.65-2.1.65-3.45v-1.52c0-.11,0-.24-.02-.37h1.53c0,.13-.01.25-.02.35s0,.19,0,.27c0,.09-.01.19-.01.29v.98ZM35.71,19.38c0-.19-.01-.37-.02-.54s0-.29-.02-.37h.81c.23,0,.4.07.5.21.1.14.15.31.15.51v3.34h.44c.15,0,.3,0,.46,0,.16,0,.32-.01.46-.03v1.49c-.15-.02-.3-.03-.46-.03-.16,0-.32,0-.46,0h-.44v5.12c0,.17,0,.34.02.5h-1.46c.01-.17.02-.34.02-.5v-9.68Z"/>
    </g>
    <g>
      <g>
        <g>
          <path class="st1" d="M100.32,26.18c3.13,0,6.28-1.36,6.28-3.87s-3.15-3.87-6.28-3.87-6.29,1.36-6.29,3.87,3.15,3.87,6.29,3.87ZM100.32,20.13c2.1,0,3.58,1.05,3.58,2.18s-1.48,2.18-3.58,2.18-3.58-1.05-3.58-2.18,1.48-2.18,3.58-2.18Z"/>
          <polygon class="st1" points="92.07 28.8 99.04 28.8 99.04 33.09 101.58 33.09 101.58 28.8 108.51 28.8 108.51 26.96 92.07 26.96 92.07 28.8"/>
        </g>
        <g>
          <polygon class="st1" points="140.01 25.72 142.57 25.72 142.57 18.98 140.01 18.98 140.01 21.17 137.11 21.17 137.11 22.93 140.01 22.93 140.01 25.72"/>
          <path class="st1" d="M132.16,22.54c.95,1.53,2.98,2.55,4.73,2.99l.71-1.64c-2.73-.98-3.78-2.54-4.11-4.91h-2.69c-.33,2.37-1.36,3.93-4.09,4.91l.72,1.64c1.75-.45,3.78-1.34,4.73-2.99Z"/>
          <path class="st1" d="M132.2,31.43v-1.03h10.39v-4.06h-12.96v1.66h10.4v.87h-10.39v2.54c0,.91.75,1.66,1.66,1.66h11.31v-1.64h-10.4Z"/>
        </g>
        <g>
          <g>
            <polygon class="st1" points="122.27 30.47 124.85 30.47 124.85 19 122.27 19 122.27 22 119.39 22 119.39 24.05 122.27 24.05 122.27 30.47"/>
            <path class="st1" d="M114.49,31.24v-3.77h-2.57v3.94c0,.91.74,1.66,1.66,1.66h11.3v-1.83h-10.39Z"/>
          </g>
          <path class="st1" d="M110.48,19.27v1.85h5.46c-.41,2.33-3.75,3.79-6.65,4.25l.79,1.62c3.43-.49,6.13-1.74,7.57-3.49,1.03-1.24,1.43-2.44,1.41-4.24h-8.57Z"/>
        </g>
        <g>
          <path class="st1" d="M75.27,28.35c0,.91.78,1.66,1.7,1.66h6.43v-1.83h-5.53v-7.03h4.95v-1.89h-7.55v9.09Z"/>
          <polygon class="st1" points="84.18 33.09 86.62 33.09 86.62 25.23 87.93 25.23 87.93 33.09 90.36 33.09 90.36 18.99 87.93 18.99 87.93 23.2 86.62 23.2 86.62 18.99 84.18 18.99 84.18 33.09"/>
        </g>
      </g>
      <g>
        <path class="st1" d="M49.27,14.02c3.54-1.54,7.13-1.55,9.96-.89,2.72.63,5.46,2.5,5.28,6.19-.85-.87-2.34-2.21-4.11-3.09-2.58-1.28-6.26-2.36-10.92-.83.05.04.09.07.15.11,4.01,2.81,5.29,5.07,6.14,7.41.87,2.42.79,6.7.53,9.11-2.56,2.11-6.77,2.48-6.25-1.56.11-.85.51-2.04.86-3.05.41-1.15.88-3.28.75-4.87-.42-5.24-3.26-5.73-3.24-7.11,0-1.01.72-1.36.86-1.42"/>
        <path class="st1" d="M63.12,14.62c3.63,1.65,5.43,4.74,5.77,6.55.82,4.42-2.03,9.86-7.62,12.84-5,2.67-8.37,1.49-10.49-.1,0,0,2.36,1.46,6.49-1.47,2.7-1.91,6.27-5.98,7.46-9.77,1.94-6.15-1.61-8.05-1.61-8.05Z"/>
      </g>
    </g>
  </g>
  <rect class="st0" width="403.19" height="47.24"/>
</svg>